
<svg width="26" height="25" viewBox="0 0 26 25" fill="none" xmlns="http://www.w3.org/2000/svg"><mask id="a" fill="#fff"><path d="M13 24.934a.67.67 0 0 1-.655-.654V1.035A.67.67 0 0 1 13 .38a.67.67 0 0 1 .655.655v23.221a.674.674 0 0 1-.655.678Z"/></mask><path d="M13 24.934a.67.67 0 0 1-.655-.654V1.035A.67.67 0 0 1 13 .38a.67.67 0 0 1 .655.655v23.221a.674.674 0 0 1-.655.678Z" fill="#4EBE99"/><path d="M13 20.934a3.331 3.331 0 0 1 3.345 3.346h-8A4.669 4.669 0 0 0 13 28.934v-8Zm3.345 3.346V1.035h-8V24.28h8Zm0-23.245A3.331 3.331 0 0 1 13 4.38v-8a4.669 4.669 0 0 0-4.655 4.655h8ZM13 4.38a3.331 3.331 0 0 1-3.345-3.345h8A4.669 4.669 0 0 0 13-3.62v8ZM9.655 1.035v23.221h8V1.035h-8Zm0 23.221A3.326 3.326 0 0 1 13 20.934v8c2.65 0 4.655-2.186 4.655-4.678h-8Z" fill="#4EBE99" mask="url(#a)"/><mask id="b" fill="#fff"><path d="M24.599 13.312H1.377a.67.67 0 0 1-.654-.655.67.67 0 0 1 .654-.655H24.6a.67.67 0 0 1 .655.655c0 .35-.28.655-.655.655Z"/></mask><path d="M24.599 13.312H1.377a.67.67 0 0 1-.654-.655.67.67 0 0 1 .654-.655H24.6a.67.67 0 0 1 .655.655c0 .35-.28.655-.655.655Z" fill="#4EBE99"/><path d="M25.254 12.657h-4 4Zm-.655-3.345H1.377v8H24.6v-8Zm-23.222 0a3.331 3.331 0 0 1 3.346 3.345h-8a4.669 4.669 0 0 0 4.654 4.655v-8Zm3.346 3.345a3.331 3.331 0 0 1-3.346 3.345v-8a4.669 4.669 0 0 0-4.654 4.655h8Zm-3.346 3.345H24.6v-8H1.377v8Zm23.222 0a3.331 3.331 0 0 1-3.345-3.345h8a4.669 4.669 0 0 0-4.655-4.655v8Zm-3.345-3.345c0-1.765 1.418-3.345 3.345-3.345v8c2.676 0 4.655-2.189 4.655-4.655h-8Z" fill="#4EBE99" mask="url(#b)"/></svg>
