<svg width="15" height="16" viewBox="0 0 15 16" fill="none" xmlns="http://www.w3.org/2000/svg"><path d="M7.5 2.096c2.002 0 2.238.009 3.032.046.73.033 1.13.153 1.39.257.35.137.599.299.865.56.265.261.423.51.56.862.104.266.224.66.258 1.39.037.788.045 1.028.045 3.027s-.008 2.235-.045 3.027c-.034.73-.154 1.128-.258 1.39a2.386 2.386 0 0 1-.56.862 2.33 2.33 0 0 1-.864.56c-.266.103-.66.224-1.391.257-.79.037-1.03.045-3.032.045s-2.238-.008-3.032-.045c-.73-.033-1.13-.154-1.39-.257a2.39 2.39 0 0 1-.865-.56 2.316 2.316 0 0 1-.56-.863c-.104-.265-.224-.66-.258-1.389-.037-.788-.045-1.028-.045-3.027s.008-2.235.045-3.027c.034-.73.154-1.128.258-1.39.137-.348.299-.597.56-.862a2.32 2.32 0 0 1 .864-.56c.266-.104.66-.224 1.391-.257.794-.037 1.03-.046 3.032-.046Zm0-1.352c-2.039 0-2.292.009-3.094.046-.797.037-1.345.162-1.819.348a3.674 3.674 0 0 0-1.329.863 3.66 3.66 0 0 0-.863 1.327c-.187.477-.312 1.02-.35 1.816C.009 5.944 0 6.198 0 8.234c0 2.036.008 2.289.046 3.09.037.795.162 1.343.349 1.816.19.493.448.912.863 1.326a3.67 3.67 0 0 0 1.33.863c.477.187 1.02.311 1.818.348.802.038 1.055.046 3.094.046 2.039 0 2.292-.008 3.094-.046.797-.037 1.345-.161 1.819-.348.494-.19.913-.448 1.329-.863.415-.414.672-.833.863-1.326.187-.477.312-1.02.35-1.817.037-.8.045-1.053.045-3.09 0-2.035-.008-2.288-.046-3.089-.037-.796-.162-1.343-.349-1.816a3.66 3.66 0 0 0-.863-1.327 3.666 3.666 0 0 0-1.33-.863c-.477-.186-1.02-.31-1.818-.348C9.792.753 9.539.744 7.5.744Z" fill="#A5BBC2"/><path d="M7.5 4.39a3.851 3.851 0 0 0-3.854 3.848A3.851 3.851 0 0 0 7.5 12.086a3.849 3.849 0 1 0 0-7.697Zm0 6.345c-1.383 0-2.5-1.12-2.5-2.497a2.498 2.498 0 0 1 2.5-2.496c1.383 0 2.5 1.12 2.5 2.496a2.498 2.498 0 0 1-2.5 2.497Zm4.008-5.595a.9.9 0 1 0 0-1.8.9.9 0 0 0 0 1.8Z" fill="#A5BBC2"/></svg>
