<svg width="158" height="29" viewBox="0 0 158 29" fill="none" xmlns="http://www.w3.org/2000/svg"><path d="m31.212 0-1.289 4.77H16.39c-.104 0-.302.024-.36.082a2.687 2.687 0 0 0-.44.197c-.105.105-.221.22-.326.279-.104.104-.197.267-.197.36l-.569 2.135c-.058.105-.034.22-.034.279 0 .104.058.267.116.325.058.104.185.302.278.36.163.104.279.162.441.162h8.88c.325 0 .708.023 1.09.081.384.058.732.186 1.045.244.325.105.662.279.929.441.267.163.58.43.812.65.163.22.349.464.407.685.104.267.22.545.278.812.058.267.035.65.035.964-.058.325-.105.743-.197 1.172l-2.38 8.845c-.058.267-.185.627-.278.893-.058.267-.22.627-.325.848-.22.43-.43.812-.65 1.126-.22.325-.546.708-.766.963-.58.58-1.23 1.114-1.974 1.497-.487.22-.951.465-1.497.523-.487.104-1.033.197-1.579.197H0l1.254-4.805H14.74c.162 0 .325-.024.488-.082.22-.058.36-.104.522-.197.104-.058.302-.186.406-.279.105-.092.244-.278.244-.44l.685-2.543a.496.496 0 0 0 0-.406 1.483 1.483 0 0 0-.244-.325 1.991 1.991 0 0 0-.279-.243 1.186 1.186 0 0 0-.44-.082H6.337a5.93 5.93 0 0 1-1.01-.081 3.521 3.521 0 0 1-.848-.244c-.267-.058-.51-.267-.73-.36-.221-.162-.36-.36-.523-.522a3.85 3.85 0 0 1-.36-.685c-.104-.22-.162-.568-.162-.893a5.177 5.177 0 0 1 .197-1.985l2.426-9.042c.104-.325.197-.685.36-1.01.104-.325.301-.731.522-1.045.174-.313.43-.673.65-.998.267-.325.569-.661.894-.928.22-.267.545-.465.812-.685.325-.22.65-.406.963-.569.325-.093.685-.22 1.01-.325A6.71 6.71 0 0 1 11.665 0h19.547Zm26.371 7.672a6.4 6.4 0 0 1 1.09.082c.326.058.709.185.964.243.325.058.569.244.731.407.221.162.441.464.604.684.163.22.22.604.325.929.058.383.14.812.081 1.288 0 .267-.023.604-.116.929-.093.325-.14.743-.244 1.126l-2.704 10.052c-.105.383-.267.847-.36 1.172a15.03 15.03 0 0 1-.487 1.044c-.163.384-.43.732-.685 1.045-.22.325-.5.58-.766.813-.22.22-.546.44-.813.603-.267.163-.661.383-.928.441-.383.105-.79.22-1.173.279a8.905 8.905 0 0 1-1.207.081H35.297c-.383 0-.824-.023-1.207-.116-.383-.058-.766-.244-1.091-.406-.267-.163-.522-.348-.685-.57-.22-.22-.43-.463-.522-.73-.058-.22-.186-.569-.244-.894-.058-.325-.104-.662-.035-1.091 0-.22-.023-.43.035-.685.058-.22.105-.58.197-.847l2.705-10.26c.104-.384.22-.732.325-1.057.058-.325.267-.662.36-.929.22-.43.51-.87.73-1.253a4.37 4.37 0 0 1 .848-.929 5.68 5.68 0 0 1 .929-.731c.325-.163.743-.383 1.01-.441.383-.058.73-.186 1.044-.244a5.926 5.926 0 0 1 1.01-.081h16.877v.046Zm-12.315 4.202a.515.515 0 0 0-.279.116c-.104.105-.267.22-.325.279-.058.104-.197.267-.197.325-.058.104-.105.302-.163.36L41.52 23.41c-.058.163-.058.349 0 .441.058.163.104.337.162.407.058.104.186.267.279.325a.777.777 0 0 0 .406.116h4.643a.788.788 0 0 0 .44-.116c.163-.058.384-.186.488-.279.163-.058.302-.267.36-.36.163-.162.244-.348.244-.44l2.832-10.493c.058-.105.035-.302.035-.407-.058-.104-.14-.267-.197-.36-.059-.058-.186-.185-.28-.243a1.007 1.007 0 0 0-.324-.116h-5.34v-.012Z" fill="#007C91"/><path fill-rule="evenodd" clip-rule="evenodd" d="M83.814 2.298c.093 1.648.767 13.07.767 13.07s-.29 3.226 2.263.661c2.554-2.565 13-13 13-13S102.456 0 98.753 0H75.434c-5.026 0-9.146 4.12-9.146 9.146a9.116 9.116 0 0 0 2.681 6.454L81.621 2.948c.011 0 2.112-2.182 2.194-.65Z" fill="#4EBE99"/><path fill-rule="evenodd" clip-rule="evenodd" d="M81.482 26.522c-.093-1.648-.766-13.07-.766-13.07s.29-3.226-2.264-.661c-2.553 2.565-13 13-13 13s-2.611 3.03 1.08 3.03H89.85c5.026 0 9.147-4.121 9.147-9.147a9.116 9.116 0 0 0-2.682-6.454L83.664 25.872c0-.011-2.101 2.182-2.182.65Z" fill="#007C91"/><path d="M128.583 7.591c.488 0 .952.058 1.37.116.383.105.824.22 1.207.441.267.163.522.43.685.65.22.267.383.604.487.929.058.22.163.58.163.847s.023.65-.035.963c-.058.43-.186.964-.279 1.451l-2.054 7.556H113.68l-.604 2.299c-.058.22-.058.43 0 .65 0 .22.186.44.279.603.104.163.325.383.487.441.163.105.383.163.604.163h11.514l-1.126 4.155h-18.223a8.44 8.44 0 0 1-1.207-.081c-.383-.058-.766-.244-1.091-.406a1.862 1.862 0 0 1-.731-.57 3.052 3.052 0 0 1-.442-.893c-.104-.22-.162-.522-.162-.847v-1.103c.058-.267.058-.58.116-.847.104-.325.139-.685.197-1.01l2.542-9.576c.105-.325.221-.661.279-.928.104-.267.267-.58.325-.848.22-.43.429-.87.65-1.253.22-.383.545-.79.766-1.045.325-.325.65-.661.963-.894.314-.232.743-.464 1.126-.568a7.66 7.66 0 0 1 1.126-.279c.383-.058.813-.116 1.126-.116h16.389Zm-6.825 8.845.894-3.355c.058-.104.035-.302.035-.406-.058-.163-.105-.348-.163-.441-.058-.093-.185-.22-.278-.325a.932.932 0 0 0-.36-.116h-4.689a.842.842 0 0 0-.407.116c-.162.104-.348.22-.441.278-.104.105-.267.302-.36.407-.139.162-.22.301-.243.44l-.894 3.39h6.906v.012Zm29.68-13.406-1.254 4.607h7.788l-1.091 4.12h-7.788l-3.192 11.875c-.058.104-.023.302-.081.406.058.105.058.302.116.36.058.105.185.186.278.244.163.081.36.116.604.116h7.103l-1.125 4.12h-12.919a6.496 6.496 0 0 1-1.497-.162 3.35 3.35 0 0 1-1.126-.522 2.788 2.788 0 0 1-.569-.604c-.221-.22-.383-.43-.488-.685-.058-.267-.185-.603-.243-.928a5.93 5.93 0 0 1-.082-1.01c.058-.267.024-.51.082-.766.058-.22.139-.58.197-.813l3.134-11.642h-4.202l1.091-4.12h4.121l1.253-4.608h9.89v.011Z" fill="#007C91"/></svg>
